inDegrees=no
num_controls=7
num_derivatives=13
num_iterations=99
num_multipliers=7
num_parameters=0
num_slacks=7
num_states=26
objective=0.454545
objective_accelerations=0.043338
objective_balance=0.000791
objective_effort=0.035778
objective_height=0.368545
objective_ligament=0.006092
solver_duration=1101.780665
status=Solve_Succeeded
success=true
DataType=double
version=3
OpenSimVersion=4.5
endheader
time	/jointset/ground_pelvis/pelvis_tilt/value	/jointset/ground_pelvis/pelvis_tx/value	/jointset/ground_pelvis/pelvis_ty/value	/jointset/hip_r/hip_flexion_r/value	/jointset/hip_r/hip_adduction_r/value	/jointset/hip_r/hip_rotation_r/value	/jointset/back/lumbar_extension/value	/jointset/patellofemoral_r/patellar_flexion_r/value	/jointset/knee_r/knee_flexion_r/value	/jointset/knee_r/knee_adduction_r/value	/jointset/knee_r/knee_rotation_r/value	/jointset/ankle_r/ankle_angle_r/value	/jointset/subtalar_r/subtalar_angle_r/value	/jointset/ground_pelvis/pelvis_tilt/speed	/jointset/ground_pelvis/pelvis_tx/speed	/jointset/ground_pelvis/pelvis_ty/speed	/jointset/hip_r/hip_flexion_r/speed	/jointset/hip_r/hip_adduction_r/speed	/jointset/hip_r/hip_rotation_r/speed	/jointset/back/lumbar_extension/speed	/jointset/patellofemoral_r/patellar_flexion_r/speed	/jointset/knee_r/knee_flexion_r/speed	/jointset/knee_r/knee_adduction_r/speed	/jointset/knee_r/knee_rotation_r/speed	/jointset/ankle_r/ankle_angle_r/speed	/jointset/subtalar_r/subtalar_angle_r/speed	/forceset/tau_hip_flexion_r	/forceset/tau_hip_adduction_r	/forceset/tau_hip_rotation_r	/forceset/tau_knee_flexion_r	/forceset/tau_ankle_angle_r	/forceset/tau_subtalar_angle_r	/forceset/tau_lumbar_extension	lambda_cid13_p0	lambda_cid14_p0	lambda_cid14_p1	lambda_cid14_p2	lambda_cid14_p3	lambda_cid14_p4	lambda_cid14_p5	/jointset/ground_pelvis/pelvis_tilt/accel	/jointset/ground_pelvis/pelvis_tx/accel	/jointset/ground_pelvis/pelvis_ty/accel	/jointset/hip_r/hip_flexion_r/accel	/jointset/hip_r/hip_adduction_r/accel	/jointset/hip_r/hip_rotation_r/accel	/jointset/back/lumbar_extension/accel	/jointset/patellofemoral_r/patellar_flexion_r/accel	/jointset/knee_r/knee_flexion_r/accel	/jointset/knee_r/knee_adduction_r/accel	/jointset/knee_r/knee_rotation_r/accel	/jointset/ankle_r/ankle_angle_r/accel	/jointset/subtalar_r/subtalar_angle_r/accel	gamma_cid13_p0	gamma_cid14_p0	gamma_cid14_p1	gamma_cid14_p2	gamma_cid14_p3	gamma_cid14_p4	gamma_cid14_p5
1	-0.1972556314314754	5.235809352633007e-05	0.6638702894675781	1.317107046382914	-0.2549539677641999	0.09229402923818911	-0.7853979774234956	1.458108070982289	1.458108070982403	0.04971675622253137	0.1745289062324152	0.4362550438977172	0.1399384081204556	0.07194133213012167	0.005708918117870112	0.01452572856220755	-0.1019099051503179	-0.001924968538738768	-0.004227164960278894	9.261656593782598e-05	-0.01603837614073363	-0.01603837614073413	0.002730857322451383	-2.960966422699962e-05	0.01360995930543553	0.002664854917309734	-0.3075927616830171	0.01928105001210213	0.05095000828102486	-0.4616081668791783	-0.02550225679506848	-0.01523276223861084	0.3417411743641224	-0.04071944360993284	-60.15112626609586	-19.769771756102	6.568909490391335	7.470806502964288	-758.115393133147	70.37883558328122	1.218332621292076	0.154240334833419	1.624491280833021	-4.962063001008079	-0.06823325072074185	-1.492068146428469	0.005064929902538273	-4.703629957980162	-4.703629957980151	0.06457664330308484	0.002919412925923335	-1.185735077207718	-0.6299851737755053	8.849488989232222e-11	-2.459309053553592e-09	-5.963049367565849e-09	1.112371288035455e-09	4.956259488874294e-09	-5.867952293892988e-09	-1.337745287934068e-08
1.01	-0.1964763963424009	0.0001173664751266403	0.6640966382779571	1.315840851168098	-0.2549765497477031	0.09217702034237649	-0.785393963888812	1.457712681824148	1.457712681824169	0.04974697244148119	0.1745285770547762	0.4363321756894359	0.1399338480405432	0.0838622486311536	0.007316470481613546	0.03074400626863133	-0.1513201896351247	-0.002594274838538476	-0.01917334239735153	0.0009175041763213519	-0.06304496401655103	-0.06304496401655227	0.003318663540399116	-3.295694865835206e-05	0.001845814075665675	-0.003568601892697993	-0.3085607924050208	0.01938142673160494	0.05095093724323516	-0.4615787722836507	-0.02584954044519223	-0.01519523597147685	0.3430243812412963	-0.04071420048280535	-60.30281322218403	-19.77724328589408	6.566913556539963	7.235167740628833	-758.9790149222212	70.38215529762549	1.172455821562024	0.1675714958990043	1.620489801147239	-4.929169054427865	-0.06670599990577801	-1.495702941302992	0.1523127444694999	-4.699999393442848	-4.699999393442978	0.05682498864112833	-0.001472941121894456	-1.167342551489614	-0.6187867442180944	-4.362491981892204e-10	-4.994121956536641e-09	-5.028165322609618e-09	-4.015806088949105e-09	9.785220565753577e-09	-1.059061227667983e-08	-1.654649321701745e-08
1.02	-0.1955792551569022	0.000199162142115111	0.6644851686225202	1.31408082153199	-0.2550059101302633	0.09191058759239884	-0.7853754790643187	1.456847061549037	1.456847061548967	0.04978325519813309	0.1745283121758888	0.4362925483677715	0.1398672012306097	0.09552255141431309	0.009066375195502232	0.04696203539906049	-0.2006767894083732	-0.003280648350185065	-0.03411193579267803	0.002986874501230151	-0.1100845995347806	-0.1100845995347818	0.003944164862367609	-1.674991285672653e-05	-0.009741863379222847	-0.009752491086894525	-0.3095288231270473	0.01948180345109897	0.05095186620543739	-0.4615493776881242	-0.02619682409531474	-0.01515770970435861	0.3443075881184501	-0.04071472183074716	-60.46231005824361	-19.78353175184524	6.561815976961606	7.006317616080389	-759.9844486696486	70.38489531018848	1.166209877717572	0.1827108048624839	1.624441565634099	-4.951326058696432	-0.07164669309012303	-1.490551338079245	0.2539614728072483	-4.710239486462599	-4.71023948646242	0.07211566410723864	0.00683027697252587	-1.150441522231427	-0.6200716506132641	-1.054321656976388e-09	-4.761245211615202e-09	-2.256819724083076e-09	-1.016320221638269e-08	8.478740840022774e-09	-1.343231461367628e-08	-1.613392167567815e-08
1.03	-0.1945668063910449	0.0002990411339310987	0.6650358151300502	1.311827761098028	-0.2550421608235758	0.09149486771039017	-0.7853304789865296	1.45551083312552	1.455510833125577	0.04982598277625526	0.1745282692974374	0.4361376004586947	0.1397389442458523	0.1069229917364311	0.01092048128023598	0.0631607755787786	-0.2498980853692707	-0.003966913152975517	-0.04902491756018418	0.006182752754942077	-0.1571712947385057	-0.1571712947385016	0.00460829917030217	8.787495674853277e-06	-0.0212511543111604	-0.01589354873305089	-0.3101118509047824	0.01961370609413281	0.05091668143373386	-0.4609376632759942	-0.02706243569252056	-0.01504789244016033	0.3451455879926612	-0.04073505469163775	-60.75527927256349	-19.76461491403218	6.533076736652651	7.098128100065454	-760.4471913242984	70.36304211652653	1.120329648062156	0.1884206408208709	1.61661339685198	-4.901949914365564	-0.0667313943675507	-1.490606221079207	0.3778427560636115	-4.709415634385651	-4.709415634384978	0.06460678886894591	0.0005037444445132886	-1.151688707394524	-0.6103210425277595	-1.673346446076879e-09	-4.500126735592682e-09	5.332652780513381e-10	-1.632099853514739e-08	7.109654575489793e-09	-1.625482350530751e-08	-1.568480307434886e-08
1.04	-0.1934416795142441	0.0004177932127027296	0.6657482536699194	1.309083603994538	-0.2550851971690149	0.09093023108570632	-0.7852484317753099	1.453703431530554	1.45370343153074	0.04987556059240404	0.1745284994473988	0.4358674564745511	0.1395494370404511	0.1180581736026773	0.01284099258663088	0.07932044186694986	-0.2988961233133389	-0.004637778775527969	-0.06389528432740711	0.01039630118507222	-0.2043192338245578	-0.2043192338245486	0.005314212467532204	3.785577024982908e-05	-0.03278107839188129	-0.02200253521564585	-0.3106948786825365	0.01974560873716217	0.0508814966620281	-0.4603259488638649	-0.02792804728972439	-0.01493807517596956	0.3459835878668555	-0.04076119439569762	-61.05616947544171	-19.74460793293122	6.50133458524688	7.194962915637293	-761.0540921055805	70.34067085054488	1.113158186543181	0.1959918491947227	1.616626787324737	-4.906674455330586	-0.0685668570425251	-1.482028338022602	0.4574955080908315	-4.722488262927987	-4.722488262927842	0.08047146196633351	0.007536450181205918	-1.154568151988076	-0.6136574179009775	-2.545712411604163e-09	-5.27632873516771e-09	6.365263274566608e-10	-2.198168801795795e-08	8.097389739697873e-09	-1.872693402012567e-08	-2.093551883292092e-08
1.05	-0.1922064530420615	0.0005561234234650687	0.666622021278919	1.305850620027061	-0.2551348385833563	0.09021716827633391	-0.7851191984082471	1.45142440253779	1.451424402537818	0.04993237981478796	0.1745290225059331	0.4354819737270904	0.1392990969234435	0.1289480089254953	0.01484023193891787	0.09541911877235902	-0.347657329362461	-0.005285417621974577	-0.07870317379306693	0.01561928628617986	-0.2514810451016495	-0.2514810451016313	0.006054808153845683	6.596445580932399e-05	-0.04431283469236459	-0.02805095032326698	-0.3109724763025792	0.01981799911534918	0.05082817495648238	-0.4594525200144137	-0.02856490922255504	-0.01482547029853203	0.3465936679056413	-0.04079296352281546	-61.25181577762874	-19.70016704287677	6.460218760385597	7.186358793144724	-761.2434032781097	70.30243858542057	1.071029414945956	0.2041691766940654	1.604389705584969	-4.854343073680866	-0.06210224260309634	-1.478058769258047	0.5800371198061279	-4.712198922017619	-4.712198922016392	0.07163362038325262	0.000323068608549977	-1.152084458175579	-0.5982560021462402	-3.425995288894782e-09	-6.084946999605154e-09	6.558241283392154e-10	-2.762684291214494e-08	9.158775573554099e-09	-2.118809458566843e-08	-2.636435441523987e-08
1.06	-0.1908635015746903	0.0007149018674398546	0.6676563559696597	1.302131324120297	-0.2551908043549934	0.08935644866862108	-0.784932667768433	1.448673921159871	1.448673921159741	0.04999676099371835	0.1745298016494977	0.4349812523988045	0.138988708166369	0.1396031726401065	0.01693063922912023	0.1114338582152097	-0.3961585111706999	-0.005902650234717531	-0.09342664399554212	0.02185575573470461	-0.298609710855455	-0.2986097108554288	0.006826603776935086	8.907277597952379e-05	-0.05582879455673214	-0.03401226322903143	-0.3112500739226226	0.01989038949353756	0.05077485325094019	-0.4585790911649618	-0.02920177115538452	-0.0147128654210915	0.3472037479444269	-0.04083070277830626	-61.45555004265915	-19.65471346395941	6.416167455380666	7.182149462392475	-761.5789223748433	70.26416466945538	1.06622386490178	0.214225436777802	1.599839294813039	-4.854669607153972	-0.06248561030179428	-1.465144485385674	0.6601923775742311	-4.715859158270729	-4.715859158270775	0.08671144932151818	0.006536377103345905	-1.151408864764919	-0.5962369775296394	-4.240153111651417e-09	-6.7986771250722e-09	6.228553953200888e-10	-3.389245574212854e-08	1.002796754994769e-08	-2.379362843589178e-08	-3.073867718418263e-08
1.07	-0.189415155423126	0.0008950384391637983	0.6688503537417309	1.297928433280481	-0.2552527551543155	0.08834896981128751	-0.7846788665018116	1.44545239338224	1.445452393382084	0.05006899697712722	0.1745307631151795	0.4343654014115073	0.1386192022590187	0.150026164995594	0.01911167783188736	0.1273450037183005	-0.4443621178556351	-0.006478796700838686	-0.1080483337605593	0.02906042026368206	-0.3456828740864271	-0.3456828740864298	0.007625143362911726	9.929554322828495e-05	-0.06734383340810908	-0.03986831080312873	-0.3111059085151091	0.01990919217907326	0.05070398990570055	-0.4574679047015537	-0.02965543397451368	-0.01459441202556461	0.3474499345346196	-0.04087832055117824	-61.56884690630319	-19.58569290840672	6.362428100185952	7.149712997361437	-761.4557528166515	70.21617248202307	1.024352955873129	0.2222956689958061	1.583642987625538	-4.794576054605988	-0.05387664625709546	-1.457569138576177	0.7739918916223425	-4.701098296226471	-4.701098296230808	0.07711253239001287	-0.002332549585947342	-1.151916555134737	-0.5772021717808953	-5.050793644273266e-09	-7.507360009104649e-09	5.871065275189575e-10	-4.019107165380346e-08	1.088693644881667e-08	-2.640684171615134e-08	-3.50569088460309e-08
